# xmcd
#
# Track frame offsets:
#	150
#	13425
#	26700
#	39975
#	53122
#	63132
#	75762
#	89125
#	102850
#	117052
#	128690
#	142332
#	158137
#	171515
#	183870
#
# Disc length: 2827 seconds
#
# Revision: 1
# Processed by: cddbd v1.5.2PL0 Copyright (c) Steve Scherf et al.
# Submitted via: audiograbber 1.83.01
#
DISCID=c40b090f
DTITLE=Bartl Gensbichler u.s. Skilehrermusi - Lässig aufg'spielt
DYEAR=2002
DGENRE=Oberkrainer
TTITLE0=Wir sand koane Zillertaler
TTITLE1=Hoch am Zwölferkogel
TTITLE2=Da Löfflschlager vom Gollingerhof
TTITLE3=Endlich wieder Winter
TTITLE4=Laura Polka
TTITLE5=Posaunen Walzer
TTITLE6=Wir sind Kinder der Berge
TTITLE7=Bayrisch tanzen
TTITLE8=Zwei Flügelhörner
TTITLE9=Pinzga'risch aufg'spielt
TTITLE10=Hay a ho !
TTITLE11=Schilehrer Musikantenmarsch
TTITLE12=Für's Schihaserl
TTITLE13=Vor uns'rem Häuserl
TTITLE14=Alpenland Power Medley
EXTD=
EXTT0=
EXTT1=
EXTT2=
EXTT3=
EXTT4=
EXTT5=
EXTT6=
EXTT7=
EXTT8=
EXTT9=
EXTT10=
EXTT11=
EXTT12=
EXTT13=
EXTT14=
PLAYORDER=
